HIERARCHY
ROOT Hips
{
	OFFSET 0.000000 0.000000 0.000000
	CHANNELS 6 Xposition Yposition Zposition Xrotation Yrotation Zrotation
	JOINT LeftUpLeg_virtual
	{
		OFFSET 0.000000 0.000000 0.000000
		CHANNELS 3 Xrotation Yrotation Zrotation
		JOINT LeftUpLeg
		{
			OFFSET 13.026900 -6.336304 -1.092800
			CHANNELS 3 Xrotation Yrotation Zrotation
			JOINT LeftLeg
			{
				OFFSET 0.524474 -46.096886 9.782700
				CHANNELS 3 Xrotation Yrotation Zrotation
				JOINT LeftFoot
				{
					OFFSET -0.524474 -53.427422 -12.948200
					CHANNELS 3 Xrotation Yrotation Zrotation
					JOINT LeftToeBase
					{
						OFFSET 0.192200 -14.009700 16.364100
						CHANNELS 3 Xrotation Yrotation Zrotation
						JOINT LeftToe_End
						{
							OFFSET -1.784700 -0.561700 9.474800
							CHANNELS 3 Xrotation Yrotation Zrotation
							End Site
							{
								OFFSET 0 0 0
							}
						}
					}
				}
			}
		}
	}
	JOINT RightUpLeg_virtual
	{
		OFFSET 0.000000 0.000000 0.000000
		CHANNELS 3 Xrotation Yrotation Zrotation
		JOINT RightUpLeg
		{
			OFFSET -12.883000 -6.336304 -1.092800
			CHANNELS 3 Xrotation Yrotation Zrotation
			JOINT RightLeg
			{
				OFFSET -0.524587 -46.096825 9.782800
				CHANNELS 3 Xrotation Yrotation Zrotation
				JOINT RightFoot
				{
					OFFSET 0.524587 -53.427383 -12.948300
					CHANNELS 3 Xrotation Yrotation Zrotation
					JOINT RightToeBase
					{
						OFFSET -0.192200 -14.009700 16.364100
						CHANNELS 3 Xrotation Yrotation Zrotation
						JOINT RightToe_End
						{
							OFFSET 1.784700 -0.561700 9.474800
							CHANNELS 3 Xrotation Yrotation Zrotation
							End Site
							{
								OFFSET 0 0 0
							}
						}
					}
				}
			}
		}
	}
	JOINT Spine_virtual
	{
		OFFSET 0.000000 0.000000 0.000000
		CHANNELS 3 Xrotation Yrotation Zrotation
		JOINT Spine
		{
			OFFSET 0.072000 7.257294 -0.789700
			CHANNELS 3 Xrotation Yrotation Zrotation
			JOINT Spine1
			{
				OFFSET 0.000000 12.508769 -0.658067
				CHANNELS 3 Xrotation Yrotation Zrotation
				JOINT Spine1_split
				{
					OFFSET 0.000000 12.508769 -0.658067
					CHANNELS 3 Xrotation Yrotation Zrotation
					JOINT Spine2
					{
						OFFSET 0.000000 12.508769 -0.658067
						CHANNELS 3 Xrotation Yrotation Zrotation
						JOINT Neck_virtual
						{
							OFFSET 0.000000 0.000000 0.000000
							CHANNELS 3 Xrotation Yrotation Zrotation
							JOINT Neck
							{
								OFFSET 0.000000 14.033295 7.520400
								CHANNELS 3 Xrotation Yrotation Zrotation
								JOINT Head
								{
									OFFSET 0.000000 8.198502 5.703100
									CHANNELS 3 Xrotation Yrotation Zrotation
									JOINT HeadTop_End
									{
										OFFSET 0.000000 17.760803 13.332701
										CHANNELS 3 Xrotation Yrotation Zrotation
										End Site
										{
											OFFSET 0 0 0
										}
									}
								}
							}
						}
						JOINT LeftShoulder_virtual
						{
							OFFSET 0.000000 0.000000 0.000000
							CHANNELS 3 Xrotation Yrotation Zrotation
							JOINT LeftShoulder
							{
								OFFSET 6.292450 5.785301 -0.669000
								CHANNELS 3 Xrotation Yrotation Zrotation
								JOINT LeftShoulder_split
								{
									OFFSET 6.292450 5.785301 -0.669000
									CHANNELS 3 Xrotation Yrotation Zrotation
									JOINT LeftArm
									{
										OFFSET 13.907140 -6.093903 1.965100
										CHANNELS 3 Xrotation Yrotation Zrotation
										JOINT LeftForeArm
										{
											OFFSET 34.140198 0.000000 0.000000
											CHANNELS 3 Xrotation Yrotation Zrotation
											JOINT LeftHand
											{
												OFFSET 40.960209 0.000000 0.000000
												CHANNELS 3 Xrotation Yrotation Zrotation
												End Site
												{
													OFFSET 0 0 0
												}
											}
										}
									}
								}
							}
						}
						JOINT RightShoulder_virtual
						{
							OFFSET 0.000000 0.000000 0.000000
							CHANNELS 3 Xrotation Yrotation Zrotation
							JOINT RightShoulder
							{
								OFFSET -6.292450 5.785301 -0.669000
								CHANNELS 3 Xrotation Yrotation Zrotation
								JOINT RightShoulder_split
								{
									OFFSET -6.292450 5.785301 -0.669000
									CHANNELS 3 Xrotation Yrotation Zrotation
									JOINT RightArm
									{
										OFFSET -13.907140 -6.093903 1.965100
										CHANNELS 3 Xrotation Yrotation Zrotation
										JOINT RightForeArm
										{
											OFFSET -34.140198 0.000000 0.000000
											CHANNELS 3 Xrotation Yrotation Zrotation
											JOINT RightHand
											{
												OFFSET -40.960209 0.000000 0.000000
												CHANNELS 3 Xrotation Yrotation Zrotation
												End Site
												{
													OFFSET 0 0 0
												}
											}
										}
									}
								}
							}
						}
					}
				}
			}
		}
	}
}
MOTION
Frames: 11
Frame Time: 0.03333333
13.325563 107.033615 -3.452850 0.000000 0.000000 0.000000 7.757840 -30.474515 -14.560054 -31.339886 -2.214132 19.955552 55.889324 3.912970 12.472774 -23.846719 31.269835 -14.172279 -4.529206 0.182699 0.540127 0.000000 0.000000 0.000000 9.554974 -27.737342 -15.516458 -27.451618 7.008095 19.035628 -0.178896 1.086412 -0.887343 22.797496 12.062415 -0.933570 -5.962512 0.989446 0.608994 0.000000 0.000000 0.000000 4.831762 -33.910441 -15.422893 16.658104 -6.025470 11.348220 14.596087 -0.525939 10.534267 1.359905 -0.470268 0.333955 0.000000 0.000000 0.000000 12.597368 -0.666161 9.471227 -9.075651 -5.808949 2.651836 36.298934 -14.204505 29.961359 0.000000 0.000000 0.000000 14.358012 -1.282624 9.682708 2.255388 -20.168869 -12.012544 0.437797 -0.966605 -0.454054 -35.466488 -26.708666 -56.686346 -1.108588 -14.798923 -1.415526 0.000000 0.000000 0.000000 12.273875 -0.963908 10.121032 2.432047 6.484420 11.210292 -3.642020 3.075658 -0.555057 0.522370 40.495266 27.072577 1.648743 22.445899 1.438540 0.000000 0.000000 0.000000 
13.194044 107.077332 -3.473385 0.000000 0.000000 0.000000 7.814075 -30.203728 -14.528036 -31.569189 -2.121442 20.073774 55.889153 3.818699 12.500240 -23.648335 30.988261 -14.187088 -4.492386 0.189041 0.523225 0.000000 0.000000 0.000000 9.611912 -27.397253 -15.479382 -27.412612 6.952591 19.014504 -0.110469 1.019888 -0.908559 22.710010 11.900449 -1.023256 -5.923012 0.979812 0.604931 0.000000 0.000000 0.000000 4.892750 -33.593329 -15.377840 16.545040 -6.089591 11.501496 14.499187 -0.590506 10.589219 1.350937 -0.479213 0.328733 0.000000 0.000000 0.000000 12.509838 -0.709136 9.519749 -8.950928 -5.762351 2.692459 36.440897 -14.345781 29.987266 0.000000 0.000000 0.000000 14.247424 -1.319185 9.713145 2.239780 -20.186008 -12.112659 0.404317 -0.994582 -0.432517 -35.167350 -27.061020 -56.981577 -1.199544 -14.983504 -1.438399 0.000000 0.000000 0.000000 12.193266 -1.000926 10.156195 2.563928 6.691761 10.678886 -3.570706 3.154524 -0.610227 0.925294 40.237659 27.310296 1.601751 22.979780 1.386921 0.000000 0.000000 0.000000 
13.057171 107.162056 -3.488411 0.000000 0.000000 0.000000 7.871610 -29.874493 -14.474914 -31.759140 -2.088898 20.150661 55.803380 3.720179 12.551647 -23.402130 30.668062 -14.211736 -4.435458 0.195967 0.493111 0.000000 0.000000 0.000000 9.671407 -26.995554 -15.418881 -27.365570 6.920460 18.980058 -0.043518 0.928072 -0.942699 22.639140 11.678669 -1.118260 -5.896031 0.965670 0.609301 0.000000 0.000000 0.000000 4.950392 -33.232654 -15.311718 16.418638 -6.141489 11.660449 14.397503 -0.651252 10.651424 1.337967 -0.499339 0.334623 0.000000 0.000000 0.000000 12.420235 -0.750244 9.576104 -8.829035 -5.727037 2.736508 36.586769 -14.494000 29.998372 0.000000 0.000000 0.000000 14.131055 -1.350646 9.751201 2.229212 -20.188371 -12.203398 0.381311 -1.019786 -0.421049 -34.775857 -27.352568 -57.271047 -1.300164 -15.180124 -1.463633 0.000000 0.000000 0.000000 12.110438 -1.035889 10.196776 2.706730 6.863464 10.151413 -3.501503 3.215528 -0.663716 1.338297 40.017426 27.538409 1.563183 23.526969 1.343438 0.000000 0.000000 0.000000 
12.915733 107.278214 -3.493248 0.000000 0.000000 0.000000 7.922783 -29.505150 -14.411569 -31.885628 -2.125333 20.191127 55.659328 3.623715 12.617641 -23.136182 30.330766 -14.254134 -4.370824 0.203205 0.455185 0.000000 0.000000 0.000000 9.721451 -26.548576 -15.348554 -27.307994 6.917779 18.932152 0.013393 0.818957 -0.986738 22.593296 11.412310 -1.210254 -5.871535 0.947802 0.619797 0.000000 0.000000 0.000000 5.003705 -32.838143 -15.231800 16.276233 -6.184263 11.827905 14.290778 -0.708764 10.720384 1.314955 -0.529944 0.326340 0.000000 0.000000 0.000000 12.329417 -0.790196 9.641210 -8.715245 -5.704864 2.782039 36.747715 -14.641943 29.995701 0.000000 0.000000 0.000000 14.008594 -1.377271 9.798180 2.225833 -20.170703 -12.274741 0.370255 -1.040007 -0.423958 -34.304929 -27.588372 -57.550395 -1.405215 -15.383480 -1.489173 0.000000 0.000000 0.000000 12.026361 -1.070034 10.243217 2.860230 6.997825 9.623629 -3.446468 3.268089 -0.705828 1.750842 39.831454 27.753021 1.535170 24.085434 1.307606 0.000000 0.000000 0.000000 
12.772112 107.406662 -3.479675 0.000000 0.000000 0.000000 7.955196 -29.121232 -14.351068 -31.942927 -2.231234 20.200527 55.501465 3.541534 12.686587 -22.893365 30.003669 -14.306990 -4.300364 0.208037 0.413362 0.000000 0.000000 0.000000 9.759098 -26.063184 -15.282381 -27.233206 6.939253 18.872028 0.059195 0.699148 -1.035496 22.577045 11.123883 -1.284542 -5.852121 0.927915 0.631613 0.000000 0.000000 0.000000 5.049872 -32.412506 -15.147133 16.121150 -6.223288 12.010622 14.178078 -0.764553 10.795445 1.276632 -0.573473 0.319999 0.000000 0.000000 0.000000 12.237018 -0.830008 9.715124 -8.608820 -5.697751 2.823743 36.932851 -14.784588 29.985258 0.000000 0.000000 0.000000 13.880514 -1.401448 9.853303 2.230734 -20.128176 -12.323925 0.367610 -1.052213 -0.447865 -33.771594 -27.773059 -57.815618 -1.504408 -15.590593 -1.510613 0.000000 0.000000 0.000000 11.942277 -1.103888 10.296711 3.025448 7.104835 9.093879 -3.401733 3.331640 -0.736848 2.131310 39.661023 27.984209 1.518644 24.631904 1.277711 0.000000 0.000000 0.000000 
12.623708 107.532898 -3.453606 0.000000 0.000000 0.000000 7.963403 -28.726949 -14.306503 -31.921545 -2.383171 20.193714 55.344179 3.492048 12.743594 -22.734092 29.697987 -14.339852 -4.238106 0.208717 0.376313 0.000000 0.000000 0.000000 9.775408 -25.554234 -15.235517 -27.127401 6.974711 18.804742 0.078523 0.574071 -1.085931 22.575380 10.835190 -1.336550 -5.833491 0.907233 0.638384 0.000000 0.000000 0.000000 5.085763 -31.961587 -15.071543 15.961655 -6.264556 12.215323 14.061218 -0.820685 10.875358 1.249945 -0.620258 0.307176 0.000000 0.000000 0.000000 12.141732 -0.871603 9.797474 -8.510809 -5.704886 2.860944 37.147415 -14.914968 29.972895 0.000000 0.000000 0.000000 13.746908 -1.426838 9.915252 2.242833 -20.062274 -12.352159 0.385048 -1.068290 -0.480246 -33.197417 -27.916778 -58.058179 -1.585154 -15.778898 -1.524764 0.000000 0.000000 0.000000 11.858210 -1.138364 10.357873 3.199150 7.193800 8.569228 -3.372294 3.412267 -0.752139 2.447597 39.478528 28.266880 1.510738 25.159210 1.250522 0.000000 0.000000 0.000000 
12.478377 107.648712 -3.416088 0.000000 0.000000 0.000000 7.948216 -28.319621 -14.290854 -31.832578 -2.549581 20.189372 55.191241 3.484855 12.775414 -22.663538 29.408718 -14.349633 -4.191909 0.205087 0.350847 0.000000 0.000000 0.000000 9.766499 -25.025928 -15.216980 -26.986767 7.008707 18.735246 0.067668 0.444935 -1.134510 22.558821 10.559542 -1.375584 -5.796682 0.887707 0.635011 0.000000 0.000000 0.000000 5.113623 -31.479591 -15.015469 15.807986 -6.315299 12.449090 13.939299 -0.878833 10.958074 1.224610 -0.682459 0.291056 0.000000 0.000000 0.000000 12.043609 -0.917037 9.885889 -8.417079 -5.723935 2.890277 37.387936 -15.028283 29.973947 0.000000 0.000000 0.000000 13.609927 -1.457417 9.981930 2.258030 -19.977190 -12.364919 0.426955 -1.066308 -0.519033 -32.609102 -28.032240 -58.276349 -1.638318 -15.919762 -1.528872 0.000000 0.000000 0.000000 11.771838 -1.175729 10.425065 3.377203 7.275805 8.062346 -3.359256 3.494384 -0.747583 2.664489 39.261269 28.633379 1.502062 25.667067 1.223535 0.000000 0.000000 0.000000 
12.336714 107.756958 -3.368546 0.000000 0.000000 0.000000 7.911713 -27.893910 -14.306519 -31.705096 -2.715156 20.198556 55.046305 3.523893 12.772969 -22.641234 29.114159 -14.340214 -4.162453 0.197227 0.334745 0.000000 0.000000 0.000000 9.728117 -24.482731 -15.229515 -26.809852 7.028978 18.663961 0.029982 0.312837 -1.176527 22.515486 10.302458 -1.410246 -5.734064 0.869875 0.619479 0.000000 0.000000 0.000000 5.133986 -30.956856 -14.985652 15.670766 -6.382543 12.712950 13.815024 -0.939993 11.040573 1.194124 -0.737492 0.281749 0.000000 0.000000 0.000000 11.945519 -0.966402 9.977230 -8.326445 -5.747665 2.910028 37.647180 -15.119812 29.998973 0.000000 0.000000 0.000000 13.471490 -1.494945 10.049623 2.272947 -19.878029 -12.371639 0.488946 -1.042507 -0.550974 -32.033430 -28.131700 -58.468120 -1.663132 -15.998987 -1.521951 0.000000 0.000000 0.000000 11.683616 -1.217339 10.495533 3.553001 7.352362 7.585179 -3.354183 3.559354 -0.732302 2.761420 38.995725 29.096753 1.485302 26.156875 1.194584 0.000000 0.000000 0.000000 
12.200651 107.873596 -3.311897 0.000000 0.000000 0.000000 7.854352 -27.431583 -14.350359 -31.559654 -2.867934 20.226541 54.912409 3.603660 12.734095 -22.604204 28.782369 -14.326788 -4.132239 0.189102 0.319471 0.000000 0.000000 0.000000 9.655601 -23.927911 -15.271798 -26.596451 7.028773 18.588618 -0.021844 0.183312 -1.206452 22.440308 10.064213 -1.448849 -5.650583 0.851746 0.593836 0.000000 0.000000 0.000000 5.146300 -30.375730 -14.980831 15.559468 -6.470925 12.998371 13.691220 -1.002212 11.117676 1.161772 -0.827262 0.274698 0.000000 0.000000 0.000000 11.851545 -1.019217 10.067112 -8.232157 -5.769535 2.912962 37.924185 -15.185816 30.064577 0.000000 0.000000 0.000000 13.332170 -1.539351 10.111939 2.283729 -19.774402 -12.384419 0.556261 -0.981803 -0.564752 -31.482965 -28.227389 -58.633643 -1.667410 -16.012680 -1.508615 0.000000 0.000000 0.000000 11.592588 -1.262819 10.565191 3.717470 7.424154 7.153232 -3.355237 3.585407 -0.700749 2.720396 38.693367 29.668911 1.450293 26.638030 1.166035 0.000000 0.000000 0.000000 
12.071747 108.010719 -3.250702 0.000000 0.000000 0.000000 7.766716 -26.930036 -14.409893 -31.405845 -3.002891 20.260858 54.775788 3.731894 12.661854 -22.517143 28.387072 -14.301656 -4.060754 0.183141 0.287631 0.000000 0.000000 0.000000 9.540373 -23.355941 -15.330071 -26.339856 7.007029 18.495339 -0.070581 0.060103 -1.222877 22.349262 9.834359 -1.490338 -5.561128 0.829937 0.561624 0.000000 0.000000 0.000000 5.132874 -29.732356 -14.997550 15.478693 -6.581320 13.288032 13.570797 -1.062495 11.184820 1.127623 -0.930883 0.262382 0.000000 0.000000 0.000000 11.763398 -1.071877 10.150365 -8.128332 -5.781720 2.893728 38.220338 -15.223718 30.184675 0.000000 0.000000 0.000000 13.197891 -1.587229 10.161729 2.288390 -19.675794 -12.410638 0.621603 -0.890241 -0.558631 -30.959813 -28.319332 -58.770329 -1.660924 -15.971149 -1.491391 0.000000 0.000000 0.000000 11.504216 -1.307985 10.628503 3.865330 7.486593 6.775486 -3.354373 3.580428 -0.657565 2.546176 38.376545 30.351773 1.390365 27.095985 1.145401 0.000000 0.000000 0.000000 
11.940386 108.174210 -3.183002 0.000000 0.000000 0.000000 7.636426 -26.375190 -14.470784 -31.234383 -3.107341 20.278890 54.601154 3.905683 12.566958 -22.380332 27.906374 -14.278652 -3.926093 0.180718 0.222760 0.000000 0.000000 0.000000 9.369812 -22.762449 -15.389133 -26.032131 6.968556 18.369794 -0.120996 -0.054361 -1.227557 22.268853 9.598630 -1.527938 -5.497481 0.800221 0.530222 0.000000 0.000000 0.000000 5.073963 -29.012250 -15.025796 15.427977 -6.706973 13.560158 13.460337 -1.115086 11.236881 1.109424 -1.039308 0.258714 0.000000 0.000000 0.000000 11.683572 -1.119304 10.219389 -8.016467 -5.780165 2.846468 38.538724 -15.231657 30.369012 0.000000 0.000000 0.000000 13.074481 -1.633175 10.194251 2.285248 -19.593383 -12.455334 0.659786 -0.788644 -0.553595 -30.452631 -28.409383 -58.865610 -1.655484 -15.888917 -1.476653 0.000000 0.000000 0.000000 11.422490 -1.347067 10.681075 3.993410 7.537196 6.457523 -3.348520 3.549314 -0.606383 2.252501 38.061858 31.154388 1.300621 27.493168 1.143046 0.000000 0.000000 0.000000 
